# xmcd CD database file
#
# Track frame offsets:
#	150
#	23615
#	39028
#	57920
#	74808
#	92781
#	111938
#	127611
#	142216
#	161144
#	181905
#	198393
#	220379
#	242318
#
# Disc length: 3479 seconds
#
# Revision: 2
# Processed by: cddbd v1.5.1PL0 Copyright (c) Steve Scherf et al.
# Submitted via: CDex 1.51
#
DISCID=c30d950e
DTITLE=Jamie Cullum - Twentysomething
DYEAR=2003
DGENRE=Jazz
TTITLE0=What A Difference A Day Make
TTITLE1=These Are The Days
TTITLE2=Singin In The Rain
TTITLE3=Twentysomething
TTITLE4=But For Now
TTITLE5=Old Devil Moon
TTITLE6=I Could Have Danced All Night
TTITLE7=Blame It On My Youth
TTITLE8=I Get Kick Out Of You
TTITLE9=All at Sea
TTITLE10=Wind Cries Mary
TTITLE11=Lover, You Should Have Come Over
TTITLE12=Next Year Baby
TTITLE13=It's About Time
EXTD=YEAR: 2003
EXTT0=
EXTT1=
EXTT2=
EXTT3=
EXTT4=
EXTT5=
EXTT6=
EXTT7=
EXTT8=
EXTT9=
EXTT10=
EXTT11=
EXTT12=
EXTT13=
PLAYORDER=
